<svg version="1.2" xmlns="http://www.w3.org/2000/svg" viewBox="0 0 960 960" width="20" height="20">
	<title>restart_alt_20dp_FILL0_wght400_GRAD0_opsz20-svg</title>
	<style>
		.s0 { fill: #23272b } 
	</style>
	<path id="Layer" class="s0" d="m444 816q-107-14-179.5-94.5-72.5-80.5-72.5-191.5 0-61 23-113.5 23-52.5 63-91.5l51 51q-30 29-47.5 69-17.5 40-17.5 85 0 81 51.5 140 51.5 59 128.5 73zm72 0v-73q77-13 128.5-72.5 51.5-59.5 51.5-140.5 0-90-63-153-63-63-153-63h-7l46 46-51 50-132-132 132-132 51 51-45 45h6q120 0 204 84 84 84 84 204 0 111-72.5 192-72.5 81-179.5 94z"/>
</svg>