<svg version="1.2" xmlns="http://www.w3.org/2000/svg" viewBox="0 0 960 960" width="20" height="20">
	<title>power_settings_new_20dp_FILL0_wght400_GRAD0_opsz20-svg</title>
	<style>
		.s0 { fill: #23272b } 
	</style>
	<path id="Layer" class="s0" d="m444 528v-384h72v384zm36 288q-70 0-130.9-26.5-60.9-26.5-106.5-72.1-45.6-45.6-72.1-106.5-26.5-60.9-26.5-131.1 0-75.8 32.5-143.8 32.5-68 91.5-116l51 51q-49 38-76 92.5-27 54.5-27 116.5 0 110 77.3 187 77.2 77 186.5 77 110.2 0 187.2-77 77-77 77-187 0-61.8-26.5-116.9-26.5-55.1-76.5-92.1l51-51q60 48 92 115.8 32 67.8 32 144.2 0 70-26.6 130.9-26.6 60.9-71.9 106.5-45.2 45.6-106.4 72.1-61.1 26.5-131.1 26.5z"/>
</svg>